<!DOCTYPE svg PUBLIC "-//W3C//DTD SVG 1.1//EN" "http://www.w3.org/Graphics/SVG/1.1/DTD/svg11.dtd">
<!-- Uploaded to: SVG Repo, www.svgrepo.com, Transformed by: SVG Repo Mixer Tools -->
<svg height="800px" width="800px" version="1.1" id="Layer_1" xmlns="http://www.w3.org/2000/svg" xmlns:xlink="http://www.w3.org/1999/xlink" viewBox="-4.8 -4.8 489.60 489.60" xml:space="preserve" fill="#000000" stroke="#000000" stroke-width="0.0048000000000000004" transform="rotate(0)">
<g id="SVGRepo_bgCarrier" stroke-width="0"/>
<g id="SVGRepo_tracerCarrier" stroke-linecap="round" stroke-linejoin="round" stroke="#CCCCCC" stroke-width="16.32"/>
<g id="SVGRepo_iconCarrier"> <g transform="translate(0 -540.36)"> <g> <path style="fill:#e60f0f;" d="M2.881,591.466l403.841-51.106l4.008,21.044h66.138l-3.006,337.704L76.033,1020.36L7.891,940.193 L2.881,591.466z"/> <path style="fill:#B93D30;" d="M3.321,591.498l403.452-51.116l4.208,21.773l-0.25,9.52L86.649,614.264l-0.313-16.096 L3.321,591.498z"/> <path style="fill:#B4392B;" d="M2.901,591.481l83.437,6.702l-33.281,19.788l22.32,401.412L7.829,940.005L2.901,591.481z"/> <g> <path style="fill:#e60f0f;" d="M53.234,618.016l33.169-19.859l0.248,16.215L53.234,618.016z"/> <path style="fill:#e60f0f;" d="M410.605,561.341l-0.251,10.021l66.764-9.708L410.605,561.341z"/> </g> <g> <path shape-rendering="auto" image-rendering="auto" color-rendering="auto" color-interpolation="sRGB" style="fill:#C5493C;" d=" M339.19,600.904c-0.958,0.015-1.883,0.353-2.625,0.959c0,0-3.198,2.537-6.826,5.957s-7.734,7.512-9.963,12.037 c-3.408,6.919-3.862,14.258-4.168,21.117s-0.478,13.302-2.336,18.729c-6.564,19.168-15.181,38.307-28.643,52.455 c-4.153,4.365-9.747,7.813-15.506,9.527c-27.2,8.1-58.748,13.837-83.096,2.623c-3.757-1.731-6.801-6.944-9.586-12.42 c-3.271-6.433-5.7-13.461-5.428-19.895c0.434-10.272,6.102-26.531,11.775-39.766c5.674-13.234,11.223-23.619,11.223-23.619 c1.15-2.047,0.423-4.639-1.624-5.79c-2.047-1.15-4.639-0.423-5.79,1.624c-0.029,0.052-0.057,0.105-0.085,0.158 c0,0-5.71,10.677-11.541,24.277c-5.831,13.6-11.912,29.946-12.453,42.758c-0.369,8.735,2.733,17.005,6.344,24.105 c2.792,5.49,6.19,12.873,13.607,16.289c27.801,12.805,61.254,6.089,89.08-2.197c7.268-2.164,14.022-6.333,19.238-11.814 c14.837-15.594,23.79-35.89,30.525-55.561c2.445-7.139,2.488-14.411,2.787-21.104s0.84-12.744,3.301-17.74 c1.122-2.278,4.825-6.456,8.168-9.607s6.281-5.484,6.281-5.484c1.86-1.434,2.206-4.103,0.772-5.963 C341.805,601.497,340.532,600.883,339.19,600.904z"/> <path style="fill:#C5493C;" d="M53.234,618.016l33.14-19.859l0.277,16.215L53.234,618.016z"/> <path style="fill:#C5493C;" d="M410.605,561.341l-0.251,10.021l66.764-9.708L410.605,561.341z"/> </g> </g> <g> <path style="fill:#AD0000;" d="M197.164,625.722c0,5.007-3.24,9.065-7.237,9.065l0,0c-3.997,0-7.237-4.059-7.237-9.065l0,0 c0-5.007,3.24-9.065,7.237-9.065h0C193.924,616.656,197.164,620.715,197.164,625.722L197.164,625.722z"/> <path style="fill:#AD0000;" d="M345.13,607.536c0,5.477-3.136,9.917-7.004,9.917l0,0c-3.868,0-7.004-4.44-7.004-9.917l0,0 c0-5.477,3.136-9.917,7.004-9.917l0,0C341.994,597.619,345.13,602.059,345.13,607.536L345.13,607.536z"/> </g> <path style="fill:#FFFFFF;" d="M312.11,808.04l-18.606-7.348l-4.491,20.87l-13.858-14.4l-11.77,18.173l-6.999-19.26l-17.257,12.709 l0.924-21.188l-20.117,5.31l8.708-19.89l-19.914-2.897l15.165-15.564l-16.68-10.663l19.315-8.869l-10.906-16.806l20.522-0.823 l-3.472-20.39l18.606,7.348l4.491-20.87l13.858,14.4l11.77-18.173l6.999,19.26l17.257-12.709l-0.924,21.188l20.117-5.31 l-8.708,19.89l19.914,2.897l-15.165,15.564l16.68,10.663l-19.315,8.869l10.906,16.806l-20.522,0.823L312.11,808.04z"/> <path shape-rendering="auto" image-rendering="auto" color-rendering="auto" color-interpolation="sRGB" style="fill:#D8D8D8;" d=" M305.649,696.258l-17.258,12.709l-0.27-0.744c-1.131,1.345-2.286,2.667-3.492,3.936c-4.153,4.365-9.747,7.813-15.506,9.527 c-16.587,4.939-34.788,8.991-51.99,8.865l5.531,8.525c16.748-0.653,33.66-4.708,48.887-9.242 c7.268-2.164,14.022-6.333,19.238-11.814c5.738-6.03,10.587-12.769,14.777-19.898L305.649,696.258L305.649,696.258z"/> <g> <path style="fill:#e60f0f;" d="M254.385,766.815l0.892,7.257l-15.923,3.426l6.051-16.803l0.208-0.573 c0.167-0.451,0.226-0.872,0.178-1.264c-0.122-0.992-0.755-1.365-1.898-1.119c-0.445,0.096-0.815,0.351-1.11,0.767 c-0.284,0.401-0.398,0.828-0.343,1.281c0.063,0.514,0.337,0.933,0.821,1.257l-2.455,6.412c-1.426-0.548-2.573-1.389-3.442-2.522 c-0.868-1.133-1.398-2.478-1.589-4.033c-0.297-2.413,0.286-4.657,1.748-6.731c1.461-2.087,3.376-3.385,5.747-3.896 c2.383-0.513,4.51-0.096,6.38,1.249c1.882,1.343,2.973,3.233,3.273,5.67c0.172,1.396,0.024,2.761-0.442,4.093l-2.213,6.417 L254.385,766.815L254.385,766.815z"/> <path style="fill:#e60f0f;" d="M271.186,744.907l0.885,7.202l-6.066,1.305l-0.185,1.209c2.294,0.173,4.046,0.758,5.256,1.755 c1.661,1.352,2.635,3.192,2.921,5.519c0.303,2.462-0.336,4.699-1.917,6.711c-1.57,1.997-3.704,3.286-6.399,3.866 c-1.817,0.391-3.67,0.293-5.558-0.294l-0.759-6.173c1.494,0.395,2.777,0.478,3.848,0.247c1.107-0.238,1.948-0.683,2.523-1.335 c0.587-0.654,0.826-1.422,0.717-2.304c-0.122-0.992-0.725-1.724-1.808-2.195c-1.071-0.474-2.335-0.554-3.791-0.24 c-0.554,0.119-1.275,0.381-2.164,0.786l1.052-13.597L271.186,744.907L271.186,744.907z"/> <path style="fill:#e60f0f;" d="M283.744,741.847c1.781-0.383,3.383-0.068,4.805,0.946c1.42,1.002,2.242,2.409,2.465,4.222 c0.224,1.825-0.216,3.516-1.322,5.074c-1.095,1.543-2.539,2.508-4.333,2.893c-1.781,0.383-3.383,0.068-4.805-0.946 c-1.41-1.017-2.226-2.432-2.449-4.244c-0.221-1.801,0.221-3.48,1.326-5.038C280.538,743.197,281.975,742.228,283.744,741.847z M284.214,745.518c-0.782,0.168-1.416,0.594-1.9,1.276c-0.484,0.683-0.678,1.422-0.58,2.218s0.458,1.416,1.081,1.861 c0.623,0.444,1.326,0.582,2.108,0.414c0.782-0.168,1.416-0.594,1.9-1.276c0.484-0.683,0.678-1.422,0.58-2.218 c-0.098-0.796-0.458-1.416-1.081-1.861S284.997,745.35,284.214,745.518z M298.068,739.124l-6.864,27.219l-2.202,0.474l6.918-27.23 L298.068,739.124z M301.966,750.789c1.769-0.381,3.365-0.064,4.786,0.95c1.422,1.014,2.244,2.428,2.467,4.24 c0.223,1.813-0.219,3.498-1.324,5.056c-1.106,1.558-2.543,2.527-4.312,2.908c-1.781,0.383-3.383,0.068-4.805-0.946 c-1.422-1.014-2.244-2.428-2.467-4.24c-0.223-1.813,0.219-3.498,1.324-5.056C298.742,752.142,300.185,751.172,301.966,750.789z M302.418,754.463c-0.782,0.168-1.416,0.594-1.9,1.276c-0.484,0.683-0.678,1.422-0.58,2.218c0.099,0.808,0.461,1.435,1.083,1.879 s1.325,0.582,2.108,0.414c0.782-0.168,1.416-0.594,1.9-1.276c0.484-0.682,0.677-1.428,0.577-2.236 c-0.098-0.796-0.458-1.416-1.081-1.861S303.2,754.295,302.418,754.463z"/> </g> <g> <path style="fill:#FFFFFF;" d="M197.589,905.602l14.307-5.829c1.747,3.948,5.166,5.374,10.258,4.278 c3.963-0.853,5.813-2.351,5.549-4.495c-0.138-1.123-0.709-1.891-1.712-2.304c-0.981-0.444-2.681-0.655-5.098-0.633 c-9.222,0.176-15.286-0.878-18.193-3.161c-2.907-2.283-4.596-5.339-5.066-9.168c-0.606-4.927,0.722-9.418,3.982-13.473 c3.286-4.061,8.378-6.833,15.276-8.317c10.46-2.25,17.896,0.539,22.309,8.367l-12.562,6.83c-1.784-3.206-4.746-4.364-8.885-3.473 c-3.436,0.739-5.021,2.194-4.755,4.364c0.119,0.97,0.601,1.639,1.444,2.008c0.843,0.369,2.411,0.556,4.703,0.56 c6.309,0.005,10.818,0.241,13.527,0.706c2.709,0.465,5.081,1.75,7.117,3.854c2.032,2.078,3.254,4.79,3.665,8.134 c0.65,5.284-0.93,10.026-4.739,14.226c-3.812,4.174-9.143,6.998-15.99,8.471C210.208,919.238,201.829,915.59,197.589,905.602 L197.589,905.602z"/> <path style="fill:#FFFFFF;" d="M279.516,903.502l-4.164-9.677l-13.771,2.963l-1.819,10.964l-12.793,2.752l9.453-55.684 l16.668-3.586l22.492,48.812L279.516,903.502z M262.85,884.802l8.353-1.797l-6.04-14.265L262.85,884.802z"/> <path style="fill:#FFFFFF;" d="M334.905,878.418l1.577,12.828l-36.008,7.747l-6.426-52.268l15.765-3.392l4.849,39.44 L334.905,878.418L334.905,878.418z"/> <path style="fill:#FFFFFF;" d="M379.12,869.26l1.535,12.483l-38.642,8.313l-6.426-52.268l38.642-8.313l1.483,12.062l-23.177,4.986 l0.932,7.582l18.738-4.031l1.426,11.602l-18.738,4.031l1.05,8.539L379.12,869.26L379.12,869.26z"/> </g> <path shape-rendering="auto" image-rendering="auto" color-rendering="auto" color-interpolation="sRGB" style="fill:#3B3C3D;" d=" M338.596,599.211c-3.129-0.109-5.754,2.34-5.863,5.469c-0.026,0.756,0.099,1.51,0.369,2.217c0,0,8.515,23.817,10.232,34.623 c1.16,7.296,1.841,14.474,0.678,20.859c-1.101,6.042-2.571,11.544-5.172,13.834c-19.645,17.294-51.164,20.889-79.436,20.912 c-6.18,0.005-12.494-1.181-16.229-4.068c-4.806-3.716-6.901-12.406-11.578-21.346c-5.58-10.667-7.958-25.354-18.029-36.98 c-3.379-3.901-8.153-6.888-12.328-9.391c-4.175-2.503-7.727-4.277-7.727-4.277c-2.782-1.436-6.202-0.346-7.638,2.437 s-0.346,6.202,2.437,7.638c0.042,0.022,0.085,0.043,0.128,0.064c0,0,3.196,1.6,6.971,3.863s8.152,5.431,9.588,7.088 c7.321,8.451,9.822,21.944,16.555,34.814c3.562,6.809,5.434,17.903,14.689,25.059c7.018,5.426,15.758,6.444,23.17,6.438 c29.142-0.024,63.469-3.096,86.918-23.74c6.634-5.84,7.731-14.251,8.836-20.313c1.558-8.551,0.589-16.972-0.635-24.67 c-2.174-13.682-10.781-36.732-10.781-36.732C342.979,600.8,340.933,599.292,338.596,599.211z"/> </g> </g>
</svg>